. 
 
http://www.torrenting.com          :     Once & For all ;)


               www . Torrenting . Com 

(((((((((((((= Enjoy No RAR releases =))))))))))))))))))))


...................................NFO:....................................

.[IMG]http://img51.imageshack.us/img51/2769/controlled20chaos1.jpg[/IMG]


[color=blue][size=5][b]Jeff.Dunham-Controlled.Chaos.2011.DVDRip.XVID.AC3.HQ.Hive-CM8[/b][/size][/color]


[b]Thx Hive

CM8 Doing It Right The First Time :D


Source: DVD-R

Encode:
funny show, did the usual cleanup
got very nice
enjoy

Video: 720x400 @bitrate 1600 2pass
Audio: English AC3 5.1 @448
Sample: Yes, included
Bonus: Yes, outtakes[/b]
 
http://www.imdb.com/title/tt2058636/


General
Complete name                    : Jeff.Dunham-Controlled.Chaos.2011.DVDRip.XVID.AC3.HQ.Hive-CM8.avi
Format                           : AVI
Format/Info                      : Audio Video Interleave
File size                        : 1.39 GiB
Duration                         : 1h 37mn
Overall bit rate                 : 2 054 Kbps
Writing application              : Nandub v1.0rc2
Writing library                  : Nandub build 1853/release

Video
ID                               : 0
Format                           : MPEG-4 Visual
Format profile                   : Advanced Simple@L5
Format settings, BVOP            : 2
Format settings, QPel            : Yes
Format settings, GMC             : No warppoints
Format settings, Matrix          : Default (H.263)
Muxing mode                      : Packed bitstream
Codec ID                         : XVID
Codec ID/Hint                    : XviD
Duration                         : 1h 37mn
Bit rate                         : 1 594 Kbps
Width                            : 720 pixels
Height                           : 400 pixels
Display aspect ratio             : 16:9
Frame rate                       : 29.970 fps
Color space                      : YUV
Chroma subsampling               : 4:2:0
Bit depth                        : 8 bits
Scan type                        : Progressive
Compression mode                 : Lossy
Bits/(Pixel*Frame)               : 0.185
Stream size                      : 1.08 GiB (78%)
Writing library                  : XviD 1.2.1 (UTC 2008-12-04)

Audio
ID                               : 1
Format                           : AC-3
Format/Info                      : Audio Coding 3
Mode extension                   : CM (complete main)
Codec ID                         : 2000
Duration                         : 1h 37mn
Bit rate mode                    : Constant
Bit rate                         : 448 Kbps
Channel(s)                       : 6 channels
Channel positions                : Front: L C R, Side: L R, LFE
Sampling rate                    : 48.0 KHz
Bit depth                        : 16 bits
Compression mode                 : Lossy
Stream size                      : 311 MiB (22%)
Alignment                        : Split accross interleaves
Interleave, duration             : 33 ms (1.00 video frame)
Interleave, preload duration     : 500 ms


Plot:
Ventriloquist and comic Jeff Dunham takes to the stage to provide fresh comedic material
with his classic puppets Walter, Peanut, Jose Jalapeo and Achmed, as well as with two
never-before-seen characters with their own unique quirks.


[img]http://img822.imageshack.us/img822/8084/35767970.png[/img]
[img]http://img8.imageshack.us/img8/8153/jejeqw.png[/img]
[img]http://img269.imageshack.us/img269/1481/jejejef.png[/img]
[img]http://img197.imageshack.us/img197/6799/jejejejej.png[/img]
[img]http://img802.imageshack.us/img802/1128/jejejjeeje.png[/img]



Greetz

ViSiON,SiC,SANTi,3LT0N,YanKeeS,MAGNET,THC,T0XiC,LKRG,FANTASIA-PLAY,FANTASIA-M,FLAWL3SS,
D2U,WBZ,BHRG,NOVA,Vik,Rapeseed,SAFC,goldadvance,MEMORY100,KaN1vE,Unevano,Pinnz,Wayne
Mr Hive,cedrict wink,and all P2P groups
Great Work Guys :D

LOOKING FOR ANYTHING YOU WANT TO LOOK AND SOUND BETTER

CM8@hushmail.com